<svg xmlns="http://www.w3.org/2000/svg" height="409.6pt" viewBox="0 0 409.6 409.6" width="409.6pt"><path d="m68.265625 136.535156c-37.6875 0-68.265625-30.566406-68.265625-68.269531s30.578125-68.265625 68.265625-68.265625c37.699219 0 68.265625 30.566406 68.265625 68.265625s30.570312 68.269531 68.269531 68.269531 68.265625-30.566406 68.265625-68.265625 30.570313-68.269531 68.269532-68.269531c37.699218 0 68.265624 30.566406 68.265624 68.265625s-30.566406 68.265625-68.265624 68.265625c-113.121094 0-204.800782 91.71875-204.800782 204.796875 0 37.679687-30.566406 68.265625-68.265625 68.265625s-68.269531-30.558594-68.269531-68.257812c0-37.699219 30.566406-68.269532 68.265625-68.269532s68.257813-30.566406 68.257813-68.265625-30.554688-68.265625-68.257813-68.265625zm0 0"></path><path d="m187.734375 298.664062c0-61.300781 49.65625-110.933593 110.9375-110.933593 61.28125.003906 110.929687 49.632812 110.929687 110.933593 0 61.273438-49.648437 110.9375-110.9375 110.9375-61.28125 0-110.929687-49.664062-110.929687-110.9375zm0 0"></path></svg>