<svg xmlns="http://www.w3.org/2000/svg" id="Layer_3" height="512" viewBox="0 0 60 60" width="512"><path d="m5.73 37.36c-.07.26-.04.53.1.76l5.05 8.75c.28.48.89.64 1.37.37l11.7-6.76v13.52c0 .55.45 1 1 1h10.11c.55 0 1-.45 1-1v-13.52l11.7 6.76c.23.13.51.17.76.1.26-.07.48-.24.61-.47l5.05-8.75c.28-.48.11-1.09-.36-1.36l-11.71-6.76 11.71-6.76c.22-.13.39-.35.46-.61.07-.25.03-.53-.1-.76l-5.05-8.75c-.28-.48-.89-.64-1.37-.36l-11.7 6.75v-13.51c0-.55-.45-1-1-1h-10.11c-.55 0-1 .45-1 1v13.51l-11.7-6.75c-.48-.28-1.09-.12-1.37.36l-5.05 8.75c-.14.23-.17.51-.1.76.07.26.23.48.46.61l11.71 6.76-11.71 6.76c-.23.13-.39.35-.46.6z"></path></svg>