<svg xmlns="http://www.w3.org/2000/svg" width="24" height="24" viewBox="0 0 24 24" fill="none"><path d="M8.625 11.25H6V9H8.625C8.92337 9 9.20952 9.11853 9.4205 9.3295C9.63147 9.54048 9.75 9.82663 9.75 10.125C9.75 10.4234 9.63147 10.7095 9.4205 10.9205C9.20952 11.1315 8.92337 11.25 8.625 11.25ZM9 12.75H6V15.75H9C9.39782 15.75 9.77936 15.592 10.0607 15.3107C10.342 15.0294 10.5 14.6478 10.5 14.25C10.5 13.8522 10.342 13.4706 10.0607 13.1893C9.77936 12.908 9.39782 12.75 9 12.75ZM16.5 11.25C16.0348 11.2501 15.5811 11.3945 15.2014 11.6631C14.8216 11.9317 14.5344 12.3114 14.3794 12.75H18.6206C18.4656 12.3114 18.1784 11.9317 17.7986 11.6631C17.4189 11.3945 16.9652 11.2501 16.5 11.25ZM22.5 5.25V18.75C22.5 19.1478 22.342 19.5294 22.0607 19.8107C21.7794 20.092 21.3978 20.25 21 20.25H3C2.60218 20.25 2.22064 20.092 1.93934 19.8107C1.65804 19.5294 1.5 19.1478 1.5 18.75V5.25C1.5 4.85218 1.65804 4.47064 1.93934 4.18934C2.22064 3.90804 2.60218 3.75 3 3.75H21C21.3978 3.75 21.7794 3.90804 22.0607 4.18934C22.342 4.47064 22.5 4.85218 22.5 5.25ZM13.5 8.25C13.5 8.44891 13.579 8.63968 13.7197 8.78033C13.8603 8.92098 14.0511 9 14.25 9H18.75C18.9489 9 19.1397 8.92098 19.2803 8.78033C19.421 8.63968 19.5 8.44891 19.5 8.25C19.5 8.05109 19.421 7.86032 19.2803 7.71967C19.1397 7.57902 18.9489 7.5 18.75 7.5H14.25C14.0511 7.5 13.8603 7.57902 13.7197 7.71967C13.579 7.86032 13.5 8.05109 13.5 8.25ZM12 14.25C11.9998 13.7586 11.8788 13.2749 11.6479 12.8412C11.4169 12.4075 11.0829 12.0372 10.6753 11.7628C10.9836 11.3766 11.1767 10.9113 11.2323 10.4203C11.2878 9.92926 11.2037 9.43252 10.9895 8.9872C10.7753 8.54188 10.4398 8.16607 10.0215 7.90297C9.60321 7.63988 9.11915 7.5002 8.625 7.5H5.25C5.05109 7.5 4.86032 7.57902 4.71967 7.71967C4.57902 7.86032 4.5 8.05109 4.5 8.25V16.5C4.5 16.6989 4.57902 16.8897 4.71967 17.0303C4.86032 17.171 5.05109 17.25 5.25 17.25H9C9.79565 17.25 10.5587 16.9339 11.1213 16.3713C11.6839 15.8087 12 15.0456 12 14.25ZM20.25 13.5C20.25 12.6425 19.956 11.8109 19.4172 11.1438C18.8784 10.4768 18.1272 10.0145 17.2889 9.83412C16.4506 9.65373 15.5758 9.76609 14.8102 10.1525C14.0447 10.5389 13.4348 11.176 13.082 11.9575C12.7292 12.7391 12.655 13.618 12.8717 14.4477C13.0883 15.2774 13.5828 16.0077 14.2727 16.5171C14.9625 17.0264 15.8061 17.2839 16.6628 17.2467C17.5195 17.2094 18.3375 16.8797 18.9806 16.3125C19.1298 16.1808 19.2206 15.9953 19.233 15.7967C19.2454 15.5982 19.1784 15.4028 19.0467 15.2536C18.9815 15.1797 18.9024 15.1194 18.8139 15.0761C18.7254 15.0328 18.6293 15.0074 18.531 15.0012C18.3324 14.9888 18.137 15.0558 17.9878 15.1875C17.7117 15.4308 17.3801 15.6026 17.0222 15.6879C16.6642 15.7733 16.2908 15.7695 15.9346 15.677C15.5785 15.5844 15.2505 15.4059 14.9793 15.1572C14.7082 14.9084 14.5022 14.5969 14.3794 14.25H19.5C19.6989 14.25 19.8897 14.171 20.0303 14.0303C20.171 13.8897 20.25 13.6989 20.25 13.5Z" fill="#F8F8F8"></path></svg>