<svg xmlns="http://www.w3.org/2000/svg" width="206" height="31" viewBox="0 0 206 31" fill="none"><path d="M0.144 8.864H3.192L6.288 21.968H6.336L9.792 8.864H12.864L16.224 21.968H16.272L19.464 8.864H22.512L17.784 26H14.736L11.304 12.896H11.256L7.752 26H4.656L0.144 8.864ZM24.0081 8.864H27.0081V26H24.0081V8.864ZM30.2078 8.864H33.2078V23.408H41.9198V26H30.2078V8.864ZM45.477 20.288C45.477 20.944 45.589 21.504 45.813 21.968C46.037 22.432 46.349 22.816 46.749 23.12C47.149 23.408 47.605 23.624 48.117 23.768C48.645 23.896 49.213 23.96 49.821 23.96C50.477 23.96 51.037 23.888 51.501 23.744C51.965 23.584 52.341 23.384 52.629 23.144C52.917 22.904 53.125 22.632 53.253 22.328C53.381 22.008 53.445 21.688 53.445 21.368C53.445 20.712 53.293 20.232 52.989 19.928C52.701 19.608 52.381 19.384 52.029 19.256C51.421 19.032 50.709 18.824 49.893 18.632C49.093 18.424 48.101 18.16 46.917 17.84C46.181 17.648 45.565 17.4 45.069 17.096C44.589 16.776 44.205 16.424 43.917 16.04C43.629 15.656 43.421 15.248 43.293 14.816C43.181 14.384 43.125 13.944 43.125 13.496C43.125 12.632 43.301 11.888 43.653 11.264C44.021 10.624 44.501 10.096 45.093 9.68C45.685 9.264 46.357 8.96 47.109 8.768C47.861 8.56 48.621 8.456 49.389 8.456C50.285 8.456 51.125 8.576 51.909 8.816C52.709 9.04 53.405 9.384 53.997 9.848C54.605 10.312 55.085 10.888 55.437 11.576C55.789 12.248 55.965 13.032 55.965 13.928H52.965C52.885 12.824 52.509 12.048 51.837 11.6C51.165 11.136 50.309 10.904 49.269 10.904C48.917 10.904 48.557 10.944 48.189 11.024C47.821 11.088 47.485 11.208 47.181 11.384C46.877 11.544 46.621 11.768 46.413 12.056C46.221 12.344 46.125 12.704 46.125 13.136C46.125 13.744 46.309 14.224 46.677 14.576C47.061 14.912 47.557 15.168 48.165 15.344C48.229 15.36 48.477 15.432 48.909 15.56C49.357 15.672 49.853 15.8 50.397 15.944C50.941 16.088 51.469 16.232 51.981 16.376C52.509 16.504 52.885 16.6 53.109 16.664C53.669 16.84 54.157 17.08 54.573 17.384C54.989 17.688 55.333 18.04 55.605 18.44C55.893 18.824 56.101 19.24 56.229 19.688C56.373 20.136 56.445 20.584 56.445 21.032C56.445 21.992 56.245 22.816 55.845 23.504C55.461 24.176 54.949 24.728 54.309 25.16C53.669 25.592 52.941 25.904 52.125 26.096C51.309 26.304 50.477 26.408 49.629 26.408C48.653 26.408 47.733 26.288 46.869 26.048C46.005 25.808 45.253 25.44 44.613 24.944C43.973 24.448 43.461 23.816 43.077 23.048C42.693 22.264 42.493 21.344 42.477 20.288H45.477ZM65.8875 10.904C64.9755 10.904 64.1835 11.088 63.5115 11.456C62.8555 11.824 62.3195 12.32 61.9035 12.944C61.4875 13.552 61.1755 14.248 60.9675 15.032C60.7755 15.816 60.6795 16.616 60.6795 17.432C60.6795 18.248 60.7755 19.048 60.9675 19.832C61.1755 20.616 61.4875 21.32 61.9035 21.944C62.3195 22.552 62.8555 23.04 63.5115 23.408C64.1835 23.776 64.9755 23.96 65.8875 23.96C66.7995 23.96 67.5835 23.776 68.2395 23.408C68.9115 23.04 69.4555 22.552 69.8715 21.944C70.2875 21.32 70.5915 20.616 70.7835 19.832C70.9915 19.048 71.0955 18.248 71.0955 17.432C71.0955 16.616 70.9915 15.816 70.7835 15.032C70.5915 14.248 70.2875 13.552 69.8715 12.944C69.4555 12.32 68.9115 11.824 68.2395 11.456C67.5835 11.088 66.7995 10.904 65.8875 10.904ZM65.8875 8.456C67.1675 8.456 68.3115 8.696 69.3195 9.176C70.3435 9.656 71.2075 10.304 71.9115 11.12C72.6155 11.936 73.1515 12.888 73.5195 13.976C73.9035 15.064 74.0955 16.216 74.0955 17.432C74.0955 18.664 73.9035 19.824 73.5195 20.912C73.1515 22 72.6155 22.952 71.9115 23.768C71.2075 24.584 70.3435 25.232 69.3195 25.712C68.3115 26.176 67.1675 26.408 65.8875 26.408C64.6075 26.408 63.4555 26.176 62.4315 25.712C61.4235 25.232 60.5675 24.584 59.8635 23.768C59.1595 22.952 58.6155 22 58.2315 20.912C57.8635 19.824 57.6795 18.664 57.6795 17.432C57.6795 16.216 57.8635 15.064 58.2315 13.976C58.6155 12.888 59.1595 11.936 59.8635 11.12C60.5675 10.304 61.4235 9.656 62.4315 9.176C63.4555 8.696 64.6075 8.456 65.8875 8.456ZM76.2259 8.864H79.3939L87.2179 21.488H87.2659V8.864H90.1219V26H86.9539L79.1539 13.4H79.0819V26H76.2259V8.864ZM102.386 16.04H107.282C108.002 16.04 108.602 15.84 109.082 15.44C109.562 15.024 109.802 14.432 109.802 13.664C109.802 12.8 109.586 12.192 109.154 11.84C108.722 11.488 108.098 11.312 107.282 11.312H102.386V16.04ZM99.3859 8.864H107.714C109.25 8.864 110.482 9.216 111.41 9.92C112.338 10.624 112.802 11.688 112.802 13.112C112.802 13.976 112.586 14.72 112.154 15.344C111.738 15.952 111.138 16.424 110.354 16.76V16.808C111.41 17.032 112.21 17.536 112.754 18.32C113.298 19.088 113.57 20.056 113.57 21.224C113.57 21.896 113.45 22.528 113.21 23.12C112.97 23.696 112.594 24.2 112.082 24.632C111.57 25.048 110.914 25.384 110.114 25.64C109.314 25.88 108.362 26 107.258 26H99.3859V8.864ZM102.386 23.552H107.69C108.602 23.552 109.306 23.32 109.802 22.856C110.314 22.376 110.57 21.704 110.57 20.84C110.57 19.992 110.314 19.344 109.802 18.896C109.306 18.432 108.602 18.2 107.69 18.2H102.386V23.552ZM115.804 8.864H123.988C125.876 8.864 127.292 9.272 128.236 10.088C129.18 10.904 129.652 12.04 129.652 13.496C129.652 14.312 129.532 14.992 129.292 15.536C129.052 16.064 128.772 16.496 128.452 16.832C128.132 17.152 127.812 17.384 127.492 17.528C127.188 17.672 126.964 17.768 126.82 17.816V17.864C127.076 17.896 127.348 17.976 127.636 18.104C127.94 18.232 128.22 18.44 128.476 18.728C128.732 19 128.94 19.36 129.1 19.808C129.276 20.256 129.364 20.816 129.364 21.488C129.364 22.496 129.436 23.416 129.58 24.248C129.74 25.064 129.98 25.648 130.3 26H127.084C126.86 25.632 126.724 25.224 126.676 24.776C126.644 24.328 126.628 23.896 126.628 23.48C126.628 22.696 126.58 22.024 126.484 21.464C126.388 20.888 126.212 20.416 125.956 20.048C125.7 19.664 125.348 19.384 124.9 19.208C124.468 19.032 123.908 18.944 123.22 18.944H118.804V26H115.804V8.864ZM118.804 16.664H123.724C124.684 16.664 125.412 16.44 125.908 15.992C126.404 15.528 126.652 14.84 126.652 13.928C126.652 13.384 126.572 12.944 126.412 12.608C126.252 12.256 126.028 11.984 125.74 11.792C125.468 11.6 125.148 11.472 124.78 11.408C124.428 11.344 124.06 11.312 123.676 11.312H118.804V16.664ZM139.519 10.904C138.607 10.904 137.815 11.088 137.143 11.456C136.487 11.824 135.951 12.32 135.535 12.944C135.119 13.552 134.807 14.248 134.599 15.032C134.407 15.816 134.311 16.616 134.311 17.432C134.311 18.248 134.407 19.048 134.599 19.832C134.807 20.616 135.119 21.32 135.535 21.944C135.951 22.552 136.487 23.04 137.143 23.408C137.815 23.776 138.607 23.96 139.519 23.96C140.431 23.96 141.215 23.776 141.871 23.408C142.543 23.04 143.087 22.552 143.503 21.944C143.919 21.32 144.223 20.616 144.415 19.832C144.623 19.048 144.727 18.248 144.727 17.432C144.727 16.616 144.623 15.816 144.415 15.032C144.223 14.248 143.919 13.552 143.503 12.944C143.087 12.32 142.543 11.824 141.871 11.456C141.215 11.088 140.431 10.904 139.519 10.904ZM139.519 8.456C140.799 8.456 141.943 8.696 142.951 9.176C143.975 9.656 144.839 10.304 145.543 11.12C146.247 11.936 146.783 12.888 147.151 13.976C147.535 15.064 147.727 16.216 147.727 17.432C147.727 18.664 147.535 19.824 147.151 20.912C146.783 22 146.247 22.952 145.543 23.768C144.839 24.584 143.975 25.232 142.951 25.712C141.943 26.176 140.799 26.408 139.519 26.408C138.239 26.408 137.087 26.176 136.063 25.712C135.055 25.232 134.199 24.584 133.495 23.768C132.791 22.952 132.247 22 131.863 20.912C131.495 19.824 131.311 18.664 131.311 17.432C131.311 16.216 131.495 15.064 131.863 13.976C132.247 12.888 132.791 11.936 133.495 11.12C134.199 10.304 135.055 9.656 136.063 9.176C137.087 8.696 138.239 8.456 139.519 8.456ZM161.545 14.312C161.417 13.816 161.241 13.36 161.017 12.944C160.793 12.528 160.505 12.168 160.153 11.864C159.801 11.56 159.385 11.328 158.905 11.168C158.441 10.992 157.897 10.904 157.273 10.904C156.361 10.904 155.569 11.088 154.897 11.456C154.241 11.824 153.705 12.32 153.289 12.944C152.873 13.552 152.561 14.248 152.353 15.032C152.161 15.816 152.065 16.616 152.065 17.432C152.065 18.248 152.161 19.048 152.353 19.832C152.561 20.616 152.873 21.32 153.289 21.944C153.705 22.552 154.241 23.04 154.897 23.408C155.569 23.776 156.361 23.96 157.273 23.96C157.945 23.96 158.537 23.848 159.049 23.624C159.561 23.384 160.001 23.064 160.369 22.664C160.737 22.248 161.025 21.768 161.233 21.224C161.441 20.68 161.577 20.096 161.641 19.472H164.569C164.505 20.496 164.281 21.432 163.897 22.28C163.529 23.128 163.025 23.864 162.385 24.488C161.745 25.096 160.993 25.568 160.129 25.904C159.265 26.24 158.313 26.408 157.273 26.408C155.993 26.408 154.841 26.176 153.817 25.712C152.809 25.232 151.953 24.584 151.249 23.768C150.545 22.952 150.001 22 149.617 20.912C149.249 19.824 149.065 18.664 149.065 17.432C149.065 16.216 149.249 15.064 149.617 13.976C150.001 12.888 150.545 11.936 151.249 11.12C151.953 10.304 152.809 9.656 153.817 9.176C154.841 8.696 155.993 8.456 157.273 8.456C158.233 8.456 159.137 8.592 159.985 8.864C160.833 9.12 161.577 9.504 162.217 10.016C162.873 10.512 163.401 11.12 163.801 11.84C164.201 12.56 164.449 13.384 164.545 14.312H161.545ZM166.817 8.864H169.817V16.664L177.449 8.864H181.145L174.305 15.704L181.625 26H177.881L172.265 17.816L169.817 20.24V26H166.817V8.864Z" fill="#82FF1F"></path><path d="M202.488 9.432C202.488 8.344 202.312 7.344 201.96 6.432C201.608 5.52 201.12 4.736 200.496 4.08C199.872 3.424 199.144 2.92 198.312 2.568C197.48 2.2 196.584 2.016 195.624 2.016C194.648 2.016 193.736 2.2 192.888 2.568C192.056 2.92 191.328 3.424 190.704 4.08C190.08 4.736 189.592 5.52 189.24 6.432C188.888 7.344 188.712 8.344 188.712 9.432C188.712 10.456 188.872 11.416 189.192 12.312C189.512 13.208 189.968 13.992 190.56 14.664C191.168 15.336 191.896 15.872 192.744 16.272C193.592 16.656 194.552 16.848 195.624 16.848C196.584 16.848 197.48 16.672 198.312 16.32C199.144 15.952 199.872 15.44 200.496 14.784C201.12 14.128 201.608 13.352 201.96 12.456C202.312 11.544 202.488 10.536 202.488 9.432ZM204.408 9.432C204.408 10.776 204.168 12 203.688 13.104C203.224 14.208 202.584 15.152 201.768 15.936C200.968 16.72 200.032 17.328 198.96 17.76C197.904 18.192 196.792 18.408 195.624 18.408C194.328 18.408 193.136 18.184 192.048 17.736C190.976 17.272 190.048 16.64 189.264 15.84C188.496 15.04 187.888 14.096 187.44 13.008C187.008 11.904 186.792 10.712 186.792 9.432C186.792 8.088 187.024 6.864 187.488 5.76C187.968 4.656 188.608 3.712 189.408 2.928C190.224 2.144 191.168 1.536 192.24 1.104C193.312 0.671999 194.44 0.456 195.624 0.456C196.792 0.456 197.904 0.671999 198.96 1.104C200.032 1.536 200.968 2.144 201.768 2.928C202.584 3.712 203.224 4.656 203.688 5.76C204.168 6.864 204.408 8.088 204.408 9.432ZM195.672 8.928C195.976 8.928 196.264 8.92 196.536 8.904C196.824 8.872 197.072 8.8 197.28 8.688C197.488 8.576 197.656 8.424 197.784 8.232C197.912 8.024 197.976 7.736 197.976 7.368C197.976 7.064 197.904 6.824 197.76 6.648C197.632 6.472 197.464 6.336 197.256 6.24C197.048 6.144 196.816 6.088 196.56 6.072C196.304 6.04 196.056 6.024 195.816 6.024H193.848V8.928H195.672ZM193.848 14.568H192.216V4.632H195.984C197.184 4.632 198.088 4.856 198.696 5.304C199.304 5.752 199.608 6.48 199.608 7.488C199.608 8.384 199.36 9.04 198.864 9.456C198.368 9.872 197.752 10.12 197.016 10.2L199.8 14.568H197.952L195.384 10.32H193.848V14.568Z" fill="#82FF1F"></path></svg>