<svg xmlns="http://www.w3.org/2000/svg" width="32" height="32" viewBox="0 0 32 32" fill="none"><g clip-path="url(#clip0_45_306)"><path d="M10.375 0H4.6875C2.10281 0 0 2.10281 0 4.6875V10.375C0 12.9597 2.10281 15.0625 4.6875 15.0625H10.375C12.9597 15.0625 15.0625 12.9597 15.0625 10.375V4.6875C15.0625 2.10281 12.9597 0 10.375 0Z" fill="#82FF1F"></path><path d="M27.3125 16.9375H21.625C19.0403 16.9375 16.9375 19.0403 16.9375 21.625V27.3125C16.9375 29.8972 19.0403 32 21.625 32H27.3125C29.8972 32 32 29.8972 32 27.3125V21.625C32 19.0403 29.8972 16.9375 27.3125 16.9375Z" fill="#82FF1F"></path><path d="M27.3125 0H21.625C19.0403 0 16.9375 2.10281 16.9375 4.6875V10.375C16.9375 13.9936 13.9936 16.9375 10.375 16.9375H4.6875C2.10281 16.9375 0 19.0403 0 21.625V27.3125C0 29.8972 2.10281 32 4.6875 32H10.375C12.9597 32 15.0625 29.8972 15.0625 27.3125V21.625C15.0625 18.0064 18.0064 15.0625 21.625 15.0625H27.3125C29.8972 15.0625 32 12.9597 32 10.375V4.6875C32 2.10281 29.8972 0 27.3125 0Z" fill="#82FF1F"></path></g><defs><clipPath id="clip0_45_306"><rect width="32" height="32" fill="white"></rect></clipPath></defs></svg>