<svg xmlns="http://www.w3.org/2000/svg" width="162" height="163" viewBox="0 0 162 163" fill="none"><g clip-path="url(#clip0_56_178)"><path d="M22.8297 67.8739C22.3744 68.3283 22.1139 68.9228 22.1285 69.5658L22.1144 93.698C22.1198 95.0254 23.1896 96.0844 24.5043 96.0986L56.7654 96.0744L40.6139 124.05C39.9568 125.188 40.3495 126.656 41.4864 127.312L62.385 139.378C63.5219 140.034 64.9897 139.64 65.6467 138.502L81.7982 110.527L97.9078 138.478C98.2279 139.022 98.7589 139.439 99.3593 139.592C99.9804 139.758 100.638 139.668 101.182 139.348L122.074 127.269C123.226 126.61 123.603 125.145 122.954 124.026L106.824 96.0626L139.106 96.0503C139.716 96.0439 140.33 95.7915 140.785 95.3371C141.229 94.9033 141.481 94.2762 141.487 93.6452L141.501 69.513C141.495 68.1856 140.426 67.1265 139.099 67.133L106.85 67.1366L122.989 39.182C123.646 38.044 123.254 36.5758 122.117 35.9194L101.218 23.8536C100.081 23.1972 98.6136 23.5913 97.9565 24.7293L81.8169 52.6838L65.6954 24.7535C65.0377 23.6013 63.5856 23.2044 62.4334 23.8634L41.5414 35.9417C40.9772 36.2506 40.5807 36.7941 40.4267 37.395C40.2608 38.0165 40.3287 38.6626 40.6489 39.2061L56.7791 67.1691L24.4974 67.1814C23.8666 67.1759 23.2731 67.4401 22.8297 67.8739Z" fill="url(#paint0_linear_56_178)"></path></g><defs><linearGradient id="paint0_linear_56_178" x1="111.667" y1="29.8861" x2="51.9349" y2="133.345" gradientUnits="userSpaceOnUse"><stop stop-color="#82FF1F"></stop><stop offset="1" stop-color="#C9FF90"></stop></linearGradient><clipPath id="clip0_56_178"><rect width="117.258" height="119.373" fill="white" transform="translate(60.2437 0.251953) rotate(30)"></rect></clipPath></defs></svg>