<svg xmlns="http://www.w3.org/2000/svg" xmlns:xlink="http://www.w3.org/1999/xlink" id="Capa_1" x="0px" y="0px" viewBox="0 0 512 512" style="enable-background:new 0 0 512 512;" xml:space="preserve"><g>	<g>		<path d="M166,0H75C33.645,0,0,33.645,0,75v91c0,41.355,33.645,75,75,75h91c41.355,0,75-33.645,75-75V75    C241,33.645,207.355,0,166,0z"></path>	</g></g><g>	<g>		<path d="M437,271h-91c-41.355,0-75,33.645-75,75v91c0,41.355,33.645,75,75,75h91c41.355,0,75-33.645,75-75v-91    C512,304.645,478.355,271,437,271z"></path>	</g></g><g>	<g>		<path d="M437,0h-91c-41.355,0-75,33.645-75,75v91c0,57.897-47.103,105-105,105H75c-41.355,0-75,33.645-75,75v91    c0,41.355,33.645,75,75,75h91c41.355,0,75-33.645,75-75v-91c0-57.897,47.103-105,105-105h91c41.355,0,75-33.645,75-75V75    C512,33.645,478.355,0,437,0z"></path>	</g></g><g></g><g></g><g></g><g></g><g></g><g></g><g></g><g></g><g></g><g></g><g></g><g></g><g></g><g></g><g></g></svg>