<svg xmlns="http://www.w3.org/2000/svg" width="63" height="62" viewBox="0 0 63 62" fill="none"><path d="M0.5 31C0.5 13.8788 14.3788 0 31.5 0C31.5 0 31.5 31 0.5 31ZM0.5 31C0.5 48.1212 14.3788 62 31.5 62C31.5 62 31.5 31 0.5 31ZM31.5 62C48.6206 62 62.5 48.1212 62.5 31C31.5 31 31.5 62 31.5 62ZM62.5 31C62.5 13.8788 48.6206 0 31.5 0C31.5 0 31.5 31 62.5 31Z" fill="url(#paint0_linear_52_26)"></path><defs><linearGradient id="paint0_linear_52_26" x1="31.5" y1="0" x2="31.5" y2="62" gradientUnits="userSpaceOnUse"><stop stop-color="#F8F8F8" stop-opacity="0.8"></stop><stop offset="1" stop-color="#D1D1D1" stop-opacity="0.2"></stop></linearGradient></defs></svg>