<svg xmlns="http://www.w3.org/2000/svg" width="63" height="62" viewBox="0 0 63 62" fill="none"><g clip-path="url(#clip0_53_62)"><path d="M9.66741 19.1937C9.31866 19.1322 8.96325 19.1011 8.6111 19.1011C5.67009 19.1011 3.16453 21.2056 2.65327 24.1051L0.592609 35.792C0.0128096 39.0798 2.21612 42.2263 5.50395 42.8061C5.8527 42.8676 6.20811 42.8988 6.56025 42.8988C9.50103 42.8988 12.0068 40.7941 12.5181 37.8948L14.5789 26.2079C15.1584 22.9199 12.9552 19.7735 9.66741 19.1937Z" fill="url(#paint0_linear_53_62)"></path><path d="M26.5569 13.8275C26.2082 13.766 25.8527 13.7349 25.5006 13.7349C22.5597 13.7349 20.054 15.8394 19.5429 18.7388L15.5896 41.1587C15.3088 42.7513 15.6651 44.3581 16.5927 45.6829C17.5203 47.0076 18.9084 47.8919 20.501 48.1729C20.8497 48.2344 21.2051 48.2655 21.5573 48.2655C24.4982 48.2655 27.0039 46.1609 27.5151 43.2615L31.4684 20.8416C32.048 17.5537 29.8447 14.4073 26.5569 13.8275Z" fill="url(#paint1_linear_53_62)"></path><path d="M47.3539 10.0563C46.4262 8.73156 45.0382 7.84733 43.4457 7.56639C43.0969 7.50488 42.7413 7.47363 42.3891 7.47363C39.4483 7.47363 36.9427 9.57813 36.4315 12.4777L30.2703 47.4192C29.9895 49.0119 30.3458 50.6187 31.2733 51.9434C32.201 53.2681 33.589 54.1524 35.1815 54.4334C35.5303 54.4949 35.8857 54.5261 36.2381 54.5261C39.1791 54.5261 41.6845 52.4215 42.1958 49.522L48.3569 14.5805C48.6378 12.9879 48.2816 11.3811 47.3539 10.0563Z" fill="url(#paint2_linear_53_62)"></path><path d="M57.4957 19.1937C57.1469 19.1322 56.7915 19.1011 56.4394 19.1011C53.4983 19.1011 50.9928 21.2056 50.4815 24.1051L48.4207 35.792C47.8409 39.0798 50.0442 42.2263 53.3321 42.8061C53.6808 42.8676 54.0362 42.8988 54.3884 42.8988C57.3292 42.8988 59.835 40.7941 60.3462 37.8948L62.407 26.2079C62.9868 22.9199 60.7836 19.7735 57.4957 19.1937Z" fill="url(#paint3_linear_53_62)"></path></g><defs><linearGradient id="paint0_linear_53_62" x1="7.58571" y1="19.1011" x2="7.58571" y2="42.8988" gradientUnits="userSpaceOnUse"><stop stop-color="#B0B0B0"></stop><stop offset="1" stop-color="#D1D1D1" stop-opacity="0.8"></stop></linearGradient><linearGradient id="paint1_linear_53_62" x1="23.5285" y1="13.7349" x2="23.5285" y2="48.2655" gradientUnits="userSpaceOnUse"><stop stop-color="#B0B0B0"></stop><stop offset="1" stop-color="#D1D1D1" stop-opacity="0.8"></stop></linearGradient><linearGradient id="paint2_linear_53_62" x1="39.3136" y1="7.47363" x2="39.3136" y2="54.5261" gradientUnits="userSpaceOnUse"><stop stop-color="#B0B0B0"></stop><stop offset="1" stop-color="#D1D1D1" stop-opacity="0.8"></stop></linearGradient><linearGradient id="paint3_linear_53_62" x1="55.4139" y1="19.1011" x2="55.4139" y2="42.8988" gradientUnits="userSpaceOnUse"><stop stop-color="#B0B0B0"></stop><stop offset="1" stop-color="#D1D1D1" stop-opacity="0.8"></stop></linearGradient><clipPath id="clip0_53_62"><rect width="62" height="62" fill="white" transform="translate(0.5)"></rect></clipPath></defs></svg>