<svg xmlns="http://www.w3.org/2000/svg" width="204" height="32" viewBox="0 0 204 32" fill="none"><path d="M0.144 9.364H3.192L6.288 22.468H6.336L9.792 9.364H12.864L16.224 22.468H16.272L19.464 9.364H22.512L17.784 26.5H14.736L11.304 13.396H11.256L7.752 26.5H4.656L0.144 9.364ZM24.0081 9.364H27.0081V26.5H24.0081V9.364ZM30.2078 9.364H33.2078V23.908H41.9198V26.5H30.2078V9.364ZM45.477 20.788C45.477 21.444 45.589 22.004 45.813 22.468C46.037 22.932 46.349 23.316 46.749 23.62C47.149 23.908 47.605 24.124 48.117 24.268C48.645 24.396 49.213 24.46 49.821 24.46C50.477 24.46 51.037 24.388 51.501 24.244C51.965 24.084 52.341 23.884 52.629 23.644C52.917 23.404 53.125 23.132 53.253 22.828C53.381 22.508 53.445 22.188 53.445 21.868C53.445 21.212 53.293 20.732 52.989 20.428C52.701 20.108 52.381 19.884 52.029 19.756C51.421 19.532 50.709 19.324 49.893 19.132C49.093 18.924 48.101 18.66 46.917 18.34C46.181 18.148 45.565 17.9 45.069 17.596C44.589 17.276 44.205 16.924 43.917 16.54C43.629 16.156 43.421 15.748 43.293 15.316C43.181 14.884 43.125 14.444 43.125 13.996C43.125 13.132 43.301 12.388 43.653 11.764C44.021 11.124 44.501 10.596 45.093 10.18C45.685 9.764 46.357 9.46 47.109 9.268C47.861 9.06 48.621 8.956 49.389 8.956C50.285 8.956 51.125 9.076 51.909 9.316C52.709 9.54 53.405 9.884 53.997 10.348C54.605 10.812 55.085 11.388 55.437 12.076C55.789 12.748 55.965 13.532 55.965 14.428H52.965C52.885 13.324 52.509 12.548 51.837 12.1C51.165 11.636 50.309 11.404 49.269 11.404C48.917 11.404 48.557 11.444 48.189 11.524C47.821 11.588 47.485 11.708 47.181 11.884C46.877 12.044 46.621 12.268 46.413 12.556C46.221 12.844 46.125 13.204 46.125 13.636C46.125 14.244 46.309 14.724 46.677 15.076C47.061 15.412 47.557 15.668 48.165 15.844C48.229 15.86 48.477 15.932 48.909 16.06C49.357 16.172 49.853 16.3 50.397 16.444C50.941 16.588 51.469 16.732 51.981 16.876C52.509 17.004 52.885 17.1 53.109 17.164C53.669 17.34 54.157 17.58 54.573 17.884C54.989 18.188 55.333 18.54 55.605 18.94C55.893 19.324 56.101 19.74 56.229 20.188C56.373 20.636 56.445 21.084 56.445 21.532C56.445 22.492 56.245 23.316 55.845 24.004C55.461 24.676 54.949 25.228 54.309 25.66C53.669 26.092 52.941 26.404 52.125 26.596C51.309 26.804 50.477 26.908 49.629 26.908C48.653 26.908 47.733 26.788 46.869 26.548C46.005 26.308 45.253 25.94 44.613 25.444C43.973 24.948 43.461 24.316 43.077 23.548C42.693 22.764 42.493 21.844 42.477 20.788H45.477ZM65.8875 11.404C64.9755 11.404 64.1835 11.588 63.5115 11.956C62.8555 12.324 62.3195 12.82 61.9035 13.444C61.4875 14.052 61.1755 14.748 60.9675 15.532C60.7755 16.316 60.6795 17.116 60.6795 17.932C60.6795 18.748 60.7755 19.548 60.9675 20.332C61.1755 21.116 61.4875 21.82 61.9035 22.444C62.3195 23.052 62.8555 23.54 63.5115 23.908C64.1835 24.276 64.9755 24.46 65.8875 24.46C66.7995 24.46 67.5835 24.276 68.2395 23.908C68.9115 23.54 69.4555 23.052 69.8715 22.444C70.2875 21.82 70.5915 21.116 70.7835 20.332C70.9915 19.548 71.0955 18.748 71.0955 17.932C71.0955 17.116 70.9915 16.316 70.7835 15.532C70.5915 14.748 70.2875 14.052 69.8715 13.444C69.4555 12.82 68.9115 12.324 68.2395 11.956C67.5835 11.588 66.7995 11.404 65.8875 11.404ZM65.8875 8.956C67.1675 8.956 68.3115 9.196 69.3195 9.676C70.3435 10.156 71.2075 10.804 71.9115 11.62C72.6155 12.436 73.1515 13.388 73.5195 14.476C73.9035 15.564 74.0955 16.716 74.0955 17.932C74.0955 19.164 73.9035 20.324 73.5195 21.412C73.1515 22.5 72.6155 23.452 71.9115 24.268C71.2075 25.084 70.3435 25.732 69.3195 26.212C68.3115 26.676 67.1675 26.908 65.8875 26.908C64.6075 26.908 63.4555 26.676 62.4315 26.212C61.4235 25.732 60.5675 25.084 59.8635 24.268C59.1595 23.452 58.6155 22.5 58.2315 21.412C57.8635 20.324 57.6795 19.164 57.6795 17.932C57.6795 16.716 57.8635 15.564 58.2315 14.476C58.6155 13.388 59.1595 12.436 59.8635 11.62C60.5675 10.804 61.4235 10.156 62.4315 9.676C63.4555 9.196 64.6075 8.956 65.8875 8.956ZM76.2259 9.364H79.3939L87.2179 21.988H87.2659V9.364H90.1219V26.5H86.9539L79.1539 13.9H79.0819V26.5H76.2259V9.364ZM102.386 16.54H107.282C108.002 16.54 108.602 16.34 109.082 15.94C109.562 15.524 109.802 14.932 109.802 14.164C109.802 13.3 109.586 12.692 109.154 12.34C108.722 11.988 108.098 11.812 107.282 11.812H102.386V16.54ZM99.3859 9.364H107.714C109.25 9.364 110.482 9.716 111.41 10.42C112.338 11.124 112.802 12.188 112.802 13.612C112.802 14.476 112.586 15.22 112.154 15.844C111.738 16.452 111.138 16.924 110.354 17.26V17.308C111.41 17.532 112.21 18.036 112.754 18.82C113.298 19.588 113.57 20.556 113.57 21.724C113.57 22.396 113.45 23.028 113.21 23.62C112.97 24.196 112.594 24.7 112.082 25.132C111.57 25.548 110.914 25.884 110.114 26.14C109.314 26.38 108.362 26.5 107.258 26.5H99.3859V9.364ZM102.386 24.052H107.69C108.602 24.052 109.306 23.82 109.802 23.356C110.314 22.876 110.57 22.204 110.57 21.34C110.57 20.492 110.314 19.844 109.802 19.396C109.306 18.932 108.602 18.7 107.69 18.7H102.386V24.052ZM115.804 9.364H123.988C125.876 9.364 127.292 9.772 128.236 10.588C129.18 11.404 129.652 12.54 129.652 13.996C129.652 14.812 129.532 15.492 129.292 16.036C129.052 16.564 128.772 16.996 128.452 17.332C128.132 17.652 127.812 17.884 127.492 18.028C127.188 18.172 126.964 18.268 126.82 18.316V18.364C127.076 18.396 127.348 18.476 127.636 18.604C127.94 18.732 128.22 18.94 128.476 19.228C128.732 19.5 128.94 19.86 129.1 20.308C129.276 20.756 129.364 21.316 129.364 21.988C129.364 22.996 129.436 23.916 129.58 24.748C129.74 25.564 129.98 26.148 130.3 26.5H127.084C126.86 26.132 126.724 25.724 126.676 25.276C126.644 24.828 126.628 24.396 126.628 23.98C126.628 23.196 126.58 22.524 126.484 21.964C126.388 21.388 126.212 20.916 125.956 20.548C125.7 20.164 125.348 19.884 124.9 19.708C124.468 19.532 123.908 19.444 123.22 19.444H118.804V26.5H115.804V9.364ZM118.804 17.164H123.724C124.684 17.164 125.412 16.94 125.908 16.492C126.404 16.028 126.652 15.34 126.652 14.428C126.652 13.884 126.572 13.444 126.412 13.108C126.252 12.756 126.028 12.484 125.74 12.292C125.468 12.1 125.148 11.972 124.78 11.908C124.428 11.844 124.06 11.812 123.676 11.812H118.804V17.164ZM139.519 11.404C138.607 11.404 137.815 11.588 137.143 11.956C136.487 12.324 135.951 12.82 135.535 13.444C135.119 14.052 134.807 14.748 134.599 15.532C134.407 16.316 134.311 17.116 134.311 17.932C134.311 18.748 134.407 19.548 134.599 20.332C134.807 21.116 135.119 21.82 135.535 22.444C135.951 23.052 136.487 23.54 137.143 23.908C137.815 24.276 138.607 24.46 139.519 24.46C140.431 24.46 141.215 24.276 141.871 23.908C142.543 23.54 143.087 23.052 143.503 22.444C143.919 21.82 144.223 21.116 144.415 20.332C144.623 19.548 144.727 18.748 144.727 17.932C144.727 17.116 144.623 16.316 144.415 15.532C144.223 14.748 143.919 14.052 143.503 13.444C143.087 12.82 142.543 12.324 141.871 11.956C141.215 11.588 140.431 11.404 139.519 11.404ZM139.519 8.956C140.799 8.956 141.943 9.196 142.951 9.676C143.975 10.156 144.839 10.804 145.543 11.62C146.247 12.436 146.783 13.388 147.151 14.476C147.535 15.564 147.727 16.716 147.727 17.932C147.727 19.164 147.535 20.324 147.151 21.412C146.783 22.5 146.247 23.452 145.543 24.268C144.839 25.084 143.975 25.732 142.951 26.212C141.943 26.676 140.799 26.908 139.519 26.908C138.239 26.908 137.087 26.676 136.063 26.212C135.055 25.732 134.199 25.084 133.495 24.268C132.791 23.452 132.247 22.5 131.863 21.412C131.495 20.324 131.311 19.164 131.311 17.932C131.311 16.716 131.495 15.564 131.863 14.476C132.247 13.388 132.791 12.436 133.495 11.62C134.199 10.804 135.055 10.156 136.063 9.676C137.087 9.196 138.239 8.956 139.519 8.956ZM161.545 14.812C161.417 14.316 161.241 13.86 161.017 13.444C160.793 13.028 160.505 12.668 160.153 12.364C159.801 12.06 159.385 11.828 158.905 11.668C158.441 11.492 157.897 11.404 157.273 11.404C156.361 11.404 155.569 11.588 154.897 11.956C154.241 12.324 153.705 12.82 153.289 13.444C152.873 14.052 152.561 14.748 152.353 15.532C152.161 16.316 152.065 17.116 152.065 17.932C152.065 18.748 152.161 19.548 152.353 20.332C152.561 21.116 152.873 21.82 153.289 22.444C153.705 23.052 154.241 23.54 154.897 23.908C155.569 24.276 156.361 24.46 157.273 24.46C157.945 24.46 158.537 24.348 159.049 24.124C159.561 23.884 160.001 23.564 160.369 23.164C160.737 22.748 161.025 22.268 161.233 21.724C161.441 21.18 161.577 20.596 161.641 19.972H164.569C164.505 20.996 164.281 21.932 163.897 22.78C163.529 23.628 163.025 24.364 162.385 24.988C161.745 25.596 160.993 26.068 160.129 26.404C159.265 26.74 158.313 26.908 157.273 26.908C155.993 26.908 154.841 26.676 153.817 26.212C152.809 25.732 151.953 25.084 151.249 24.268C150.545 23.452 150.001 22.5 149.617 21.412C149.249 20.324 149.065 19.164 149.065 17.932C149.065 16.716 149.249 15.564 149.617 14.476C150.001 13.388 150.545 12.436 151.249 11.62C151.953 10.804 152.809 10.156 153.817 9.676C154.841 9.196 155.993 8.956 157.273 8.956C158.233 8.956 159.137 9.092 159.985 9.364C160.833 9.62 161.577 10.004 162.217 10.516C162.873 11.012 163.401 11.62 163.801 12.34C164.201 13.06 164.449 13.884 164.545 14.812H161.545ZM166.817 9.364H169.817V17.164L177.449 9.364H181.145L174.305 16.204L181.625 26.5H177.881L172.265 18.316L169.817 20.74V26.5H166.817V9.364Z" fill="white"></path><path d="M200.488 9.932C200.488 8.844 200.312 7.844 199.96 6.932C199.608 6.02 199.12 5.236 198.496 4.58C197.872 3.924 197.144 3.42 196.312 3.068C195.48 2.7 194.584 2.516 193.624 2.516C192.648 2.516 191.736 2.7 190.888 3.068C190.056 3.42 189.328 3.924 188.704 4.58C188.08 5.236 187.592 6.02 187.24 6.932C186.888 7.844 186.712 8.844 186.712 9.932C186.712 10.956 186.872 11.916 187.192 12.812C187.512 13.708 187.968 14.492 188.56 15.164C189.168 15.836 189.896 16.372 190.744 16.772C191.592 17.156 192.552 17.348 193.624 17.348C194.584 17.348 195.48 17.172 196.312 16.82C197.144 16.452 197.872 15.94 198.496 15.284C199.12 14.628 199.608 13.852 199.96 12.956C200.312 12.044 200.488 11.036 200.488 9.932ZM202.408 9.932C202.408 11.276 202.168 12.5 201.688 13.604C201.224 14.708 200.584 15.652 199.768 16.436C198.968 17.22 198.032 17.828 196.96 18.26C195.904 18.692 194.792 18.908 193.624 18.908C192.328 18.908 191.136 18.684 190.048 18.236C188.976 17.772 188.048 17.14 187.264 16.34C186.496 15.54 185.888 14.596 185.44 13.508C185.008 12.404 184.792 11.212 184.792 9.932C184.792 8.588 185.024 7.364 185.488 6.26C185.968 5.156 186.608 4.212 187.408 3.428C188.224 2.644 189.168 2.036 190.24 1.604C191.312 1.172 192.44 0.956 193.624 0.956C194.792 0.956 195.904 1.172 196.96 1.604C198.032 2.036 198.968 2.644 199.768 3.428C200.584 4.212 201.224 5.156 201.688 6.26C202.168 7.364 202.408 8.588 202.408 9.932ZM193.672 9.428C193.976 9.428 194.264 9.42 194.536 9.404C194.824 9.372 195.072 9.3 195.28 9.188C195.488 9.076 195.656 8.924 195.784 8.732C195.912 8.524 195.976 8.236 195.976 7.868C195.976 7.564 195.904 7.324 195.76 7.148C195.632 6.972 195.464 6.836 195.256 6.74C195.048 6.644 194.816 6.588 194.56 6.572C194.304 6.54 194.056 6.524 193.816 6.524H191.848V9.428H193.672ZM191.848 15.068H190.216V5.132H193.984C195.184 5.132 196.088 5.356 196.696 5.804C197.304 6.252 197.608 6.98 197.608 7.988C197.608 8.884 197.36 9.54 196.864 9.956C196.368 10.372 195.752 10.62 195.016 10.7L197.8 15.068H195.952L193.384 10.82H191.848V15.068Z" fill="white"></path></svg>